<?xml version="1.0" encoding="UTF-8"?>
<svg xmlns="http://www.w3.org/2000/svg" xmlns:xlink="http://www.w3.org/1999/xlink" width="50pt" height="50pt" viewBox="0 0 50 50" version="1.1">
<g id="surface1">
<path style=" stroke:none;fill-rule:nonzero;fill:rgb(6.27451%,11.764706%,11.764706%);fill-opacity:1;" d="M 25.054688 0.847656 C 11.714844 0.847656 0.882812 11.679688 0.882812 25.019531 C 0.882812 38.355469 11.714844 49.1875 25.054688 49.1875 C 38.390625 49.1875 49.222656 38.355469 49.222656 25.019531 C 49.222656 11.679688 38.390625 0.847656 25.054688 0.847656 "/>
<path style=" stroke:none;fill-rule:nonzero;fill:rgb(100%,100%,100%);fill-opacity:1;" d="M 14.996094 33.097656 C 10.550781 33.097656 6.917969 29.464844 6.917969 25.019531 C 6.917969 20.570312 10.515625 16.9375 14.996094 16.9375 C 15.84375 16.9375 16.726562 17.078125 17.535156 17.324219 C 18.417969 17.609375 18.914062 18.59375 18.632812 19.476562 C 18.347656 20.359375 17.359375 20.855469 16.476562 20.570312 C 16.019531 20.429688 15.527344 20.324219 15.03125 20.324219 C 12.457031 20.324219 10.375 22.40625 10.375 24.980469 C 10.375 27.558594 12.457031 29.640625 15.03125 29.640625 C 17.429688 29.640625 18.773438 28.371094 19.9375 25.160156 L 22.476562 18.03125 C 22.722656 17.359375 23.359375 16.902344 24.066406 16.902344 C 24.769531 16.902344 25.40625 17.324219 25.6875 17.996094 L 28.617188 25.582031 L 31.582031 17.996094 C 31.828125 17.324219 32.464844 16.902344 33.167969 16.902344 L 33.203125 16.902344 C 33.910156 16.902344 34.542969 17.359375 34.792969 18.03125 L 39.027344 29.816406 C 39.34375 30.699219 38.886719 31.6875 38.003906 32.003906 C 37.121094 32.320312 36.132812 31.863281 35.816406 30.980469 L 33.132812 23.5 L 30.238281 30.910156 C 29.992188 31.582031 29.359375 32.003906 28.652344 32.003906 C 27.945312 32.003906 27.3125 31.582031 27.0625 30.910156 L 24.207031 23.5 L 23.21875 26.289062 C 22.054688 29.25 20.113281 33.097656 14.996094 33.097656 "/>
<path style=" stroke:none;fill-rule:nonzero;fill:rgb(8.627451%,34.117647%,91.764706%);fill-opacity:1;" d="M 40.894531 30.203125 C 40.894531 29.144531 41.742188 28.265625 42.835938 28.265625 C 43.894531 28.265625 44.777344 29.109375 44.777344 30.203125 C 44.777344 31.261719 43.929688 32.144531 42.835938 32.144531 C 41.742188 32.109375 40.894531 31.261719 40.894531 30.203125 "/>
</g>
</svg>
